{
	"asset":{
		"generator":"Khronos glTF Blender I/O v4.1.36",
		"version":"2.0"
	},
	"extensionsUsed":[
		"KHR_materials_specular"
	],
	"scene":0,
	"scenes":[
		{
			"name":"Scene",
			"nodes":[
				0,
				1,
				2
			]
		}
	],
	"nodes":[
		{
			"mesh":0,
			"name":"MatChekker",
			"scale":[
				0.009999999776482582,
				0.009999999776482582,
				0.009999999776482582
			]
		},
		{
			"mesh":1,
			"name":"MatChekker_vint",
			"scale":[
				0.009999999776482582,
				0.009999999776482582,
				0.009999999776482582
			]
		},
		{
			"mesh":2,
			"name":"MatChekker_cap",
			"scale":[
				0.009999999776482582,
				0.009999999776482582,
				0.009999999776482582
			]
		}
	],
	"materials":[
		{
			"doubleSided":true,
			"extensions":{
				"KHR_materials_specular":{
					"specularColorFactor":[
						2.0,
						2.0,
						2.0
					]
				}
			},
			"name":"Material #28",
			"pbrMetallicRoughness":{
				"metallicFactor":0,
				"roughnessFactor":0.5527864098548889
			}
		},
		{
			"doubleSided":true,
			"extensions":{
				"KHR_materials_specular":{
					"specularColorFactor":[
						2.0,
						2.0,
						2.0
					]
				}
			},
			"name":"Material #27",
			"pbrMetallicRoughness":{
				"baseColorFactor":[
					0.9018999934196472,
					0.9136999845504761,
					0.921500027179718,
					1
				],
				"metallicFactor":0,
				"roughnessFactor":0.5527864098548889
			}
		},
		{
			"doubleSided":true,
			"extensions":{
				"KHR_materials_specular":{
					"specularColorFactor":[
						2.0,
						2.0,
						2.0
					]
				}
			},
			"name":"Material.001",
			"pbrMetallicRoughness":{
				"baseColorFactor":[
					0.00800000037997961,
					0.009999999776482582,
					0.009999999776482582,
					1
				],
				"metallicFactor":0,
				"roughnessFactor":0.5527864098548889
			}
		}
	],
	"meshes":[
		{
			"name":"Mesh",
			"primitives":[
				{
					"attributes":{
						"POSITION":0,
						"NORMAL":1,
						"TEXCOORD_0":2
					},
					"indices":3,
					"material":0
				}
			]
		},
		{
			"name":"Mesh.001",
			"primitives":[
				{
					"attributes":{
						"POSITION":4,
						"NORMAL":5,
						"TEXCOORD_0":6
					},
					"indices":7,
					"material":1
				}
			]
		},
		{
			"name":"Mesh.002",
			"primitives":[
				{
					"attributes":{
						"POSITION":8,
						"NORMAL":9,
						"TEXCOORD_0":10
					},
					"indices":11,
					"material":2
				}
			]
		}
	],
	"accessors":[
		{
			"bufferView":0,
			"componentType":5126,
			"count":28235,
			"max":[
				32.676300048828125,
				72.3030014038086,
				26.14240074157715
			],
			"min":[
				-22.425399780273438,
				0.001500000013038516,
				-26.14240074157715
			],
			"type":"VEC3"
		},
		{
			"bufferView":1,
			"componentType":5126,
			"count":28235,
			"type":"VEC3"
		},
		{
			"bufferView":2,
			"componentType":5126,
			"count":28235,
			"type":"VEC2"
		},
		{
			"bufferView":3,
			"componentType":5123,
			"count":147132,
			"type":"SCALAR"
		},
		{
			"bufferView":4,
			"componentType":5126,
			"count":4429,
			"max":[
				21.83329963684082,
				5.877600193023682,
				21.83300018310547
			],
			"min":[
				-21.83329963684082,
				5.5081000328063965,
				-21.833599090576172
			],
			"type":"VEC3"
		},
		{
			"bufferView":5,
			"componentType":5126,
			"count":4429,
			"type":"VEC3"
		},
		{
			"bufferView":6,
			"componentType":5126,
			"count":4429,
			"type":"VEC2"
		},
		{
			"bufferView":7,
			"componentType":5123,
			"count":23040,
			"type":"SCALAR"
		},
		{
			"bufferView":8,
			"componentType":5126,
			"count":2409,
			"max":[
				21.119600296020508,
				13.858200073242188,
				21.119300842285156
			],
			"min":[
				-21.119600296020508,
				5.536300182342529,
				-21.11989974975586
			],
			"type":"VEC3"
		},
		{
			"bufferView":9,
			"componentType":5126,
			"count":2409,
			"type":"VEC3"
		},
		{
			"bufferView":10,
			"componentType":5126,
			"count":2409,
			"type":"VEC2"
		},
		{
			"bufferView":11,
			"componentType":5123,
			"count":12672,
			"type":"SCALAR"
		}
	],
	"bufferViews":[
		{
			"buffer":0,
			"byteLength":338820,
			"byteOffset":0,
			"target":34962
		},
		{
			"buffer":0,
			"byteLength":338820,
			"byteOffset":338820,
			"target":34962
		},
		{
			"buffer":0,
			"byteLength":225880,
			"byteOffset":677640,
			"target":34962
		},
		{
			"buffer":0,
			"byteLength":294264,
			"byteOffset":903520,
			"target":34963
		},
		{
			"buffer":0,
			"byteLength":53148,
			"byteOffset":1197784,
			"target":34962
		},
		{
			"buffer":0,
			"byteLength":53148,
			"byteOffset":1250932,
			"target":34962
		},
		{
			"buffer":0,
			"byteLength":35432,
			"byteOffset":1304080,
			"target":34962
		},
		{
			"buffer":0,
			"byteLength":46080,
			"byteOffset":1339512,
			"target":34963
		},
		{
			"buffer":0,
			"byteLength":28908,
			"byteOffset":1385592,
			"target":34962
		},
		{
			"buffer":0,
			"byteLength":28908,
			"byteOffset":1414500,
			"target":34962
		},
		{
			"buffer":0,
			"byteLength":19272,
			"byteOffset":1443408,
			"target":34962
		},
		{
			"buffer":0,
			"byteLength":25344,
			"byteOffset":1462680,
			"target":34963
		}
	],
	"buffers":[
		{
			"byteLength":1488024,
			"uri":"materialBall.bin"
		}
	]
}
